<?xml version="1.0" encoding="UTF-8" standalone="no"?>
<!-- Created with Inkscape (http://www.inkscape.org/) -->

<svg
   width="210mm"
   height="210mm"
   viewBox="0 0 210 210"
   version="1.1"
   id="svg1"
   xml:space="preserve"
   inkscape:version="1.4 (86a8ad7, 2024-10-11)"
   sodipodi:docname="logo.svg"
   xmlns:inkscape="http://www.inkscape.org/namespaces/inkscape"
   xmlns:sodipodi="http://sodipodi.sourceforge.net/DTD/sodipodi-0.dtd"
   xmlns="http://www.w3.org/2000/svg"
   xmlns:svg="http://www.w3.org/2000/svg"><sodipodi:namedview
     id="namedview1"
     pagecolor="#ffffff"
     bordercolor="#000000"
     borderopacity="0.25"
     inkscape:showpageshadow="2"
     inkscape:pageopacity="0.0"
     inkscape:pagecheckerboard="0"
     inkscape:deskcolor="#d1d1d1"
     inkscape:document-units="mm"
     inkscape:zoom="1.0396254"
     inkscape:cx="396.77753"
     inkscape:cy="561.25985"
     inkscape:window-width="3440"
     inkscape:window-height="1369"
     inkscape:window-x="-8"
     inkscape:window-y="-8"
     inkscape:window-maximized="1"
     inkscape:current-layer="layer1"
     showgrid="false" /><defs
     id="defs1" /><g
     inkscape:label="Layer 1"
     inkscape:groupmode="layer"
     id="layer1"><path
       style="fill:#000000;stroke-width:1.03028"
       d="M 98.432011,196.06086 C 83.275777,194.7853 71.419091,191.93764 58.913312,186.56956 48.966421,182.29986 40.436024,176.99149 32.34847,170.03851 25.828912,164.43357 22.34883,160.7867 17.798594,154.7913 3.9746127,136.5768 -1.7936958,115.10129 1.2431264,93.155006 3.4278395,77.366689 10.202404,62.51858 21.180052,49.45838 26.269774,43.403089 33.209343,37.199799 40.424429,32.255788 54.124796,22.867852 71.021655,16.418907 88.266804,13.996022 c 5.769992,-0.810663 9.92525,-1.085276 16.561306,-1.094502 8.30482,-0.01155 14.05181,0.504901 22.2721,2.001457 31.23769,5.687016 57.41029,23.314563 71.65691,48.261765 4.77528,8.361951 7.76302,16.323769 9.52409,25.380063 1.27098,6.535894 1.39751,8.003637 1.39117,16.135695 -0.005,6.82804 -0.0607,7.96971 -0.53457,11.02437 -1.33231,8.58796 -3.12336,14.77682 -6.35188,21.94853 -7.26867,16.1463 -18.99965,29.61204 -34.92827,40.09339 -14.55157,9.57522 -31.55232,15.60057 -50.12315,17.76445 -3.81084,0.44404 -5.46107,0.52679 -11.42159,0.57278 -3.83195,0.0296 -7.37836,0.0191 -7.880909,-0.0231 z m 8.109329,-18.11837 v -13.83058 h -1.37058 -1.3706 v 13.83058 13.83059 h 1.3706 1.37058 z m 1.09837,-19.86073 -0.0705,-4.02572 -0.746,-0.58447 c -0.55844,-0.43753 -0.97394,-0.58448 -1.65253,-0.58448 -0.67859,0 -1.09409,0.14695 -1.65252,0.58448 l -0.74601,0.58447 -0.0704,4.02572 -0.0705,4.02572 h 2.53937 2.53938 z m -1.08437,-7.95076 c 0.77952,-2.10879 2.92602,-3.86485 7.29583,-5.96876 1.31919,-0.63514 3.94045,-2.10485 5.82501,-3.266 9.79746,-6.03662 13.96223,-9.71994 17.00153,-15.03618 0.96396,-1.68611 1.16281,-2.58313 0.34505,-1.55649 -1.17883,1.47994 -3.92953,4.23086 -5.70574,5.70619 -5.66784,4.70772 -12.67735,8.1616 -19.2061,9.46364 -1.86434,0.37181 -2.93334,0.44991 -6.14066,0.4486 -3.70811,-0.001 -4.02249,-0.0335 -6.967169,-0.70988 -6.215232,-1.42753 -12.008515,-3.87362 -19.074049,-8.05362 -1.507651,-0.89193 -3.289642,-2.01266 -3.959983,-2.49052 -0.67034,-0.47785 -1.255732,-0.83642 -1.300869,-0.79681 -0.119045,0.10445 3.151856,4.23456 4.624292,5.839 1.433721,1.56225 4.707019,4.01114 7.717071,5.77343 1.131219,0.66229 4.112649,2.09273 6.625398,3.17875 6.275762,2.71243 8.723609,4.41924 10.122399,7.05803 0.60355,1.1386 0.62995,1.15813 1.56701,1.16019 0.90042,0.002 0.96848,-0.0395 1.23098,-0.74957 z m -7.095387,-0.44191 c 0,-0.10523 -0.642465,-0.65435 -1.4277,-1.22025 -0.94813,-0.68331 -2.770433,-1.59623 -5.425244,-2.7179 -9.216433,-3.89397 -12.544427,-5.78921 -16.204491,-9.22817 -2.190719,-2.05839 -3.326171,-3.55571 -4.509724,-5.947 -0.576488,-1.16476 -1.843807,-3.08496 -3.108844,-4.71042 -2.662406,-3.42095 -3.858025,-5.2138 -4.692771,-7.0369 -0.358586,-0.78315 -0.718105,-1.48194 -0.798929,-1.55286 -0.228581,-0.20058 -0.852445,1.27475 -1.092777,2.58424 -0.404684,2.20497 0.483193,4.67613 2.792244,7.77141 0.534565,0.71658 1.68221,2.52058 2.550321,4.00887 1.961055,3.36203 2.245545,3.69083 4.568574,5.28002 5.412799,3.7029 12.417752,7.18854 21.981201,10.93775 2.01021,0.78807 3.963283,1.55977 4.340198,1.71489 0.833559,0.34304 1.027942,0.36504 1.027942,0.11632 z m 24.975397,-3.89244 c 7.74216,-2.40104 12.69112,-4.15621 17.78797,-6.3086 2.80632,-1.18511 2.91109,-1.25212 3.17754,-2.03248 0.15154,-0.44384 0.20995,-0.86451 0.12981,-0.93484 -0.18786,-0.16483 -1.54461,0.28719 -5.63828,1.87849 -5.15103,2.00233 -11.16501,4.1204 -16.60816,5.84926 -5.92217,1.88101 -6.73265,2.18173 -8.45702,3.13797 -1.27259,0.7057 -3.03193,2.04083 -3.03193,2.30085 0,0.0695 1.72181,-0.42941 3.82623,-1.10874 2.10443,-0.67932 6.07066,-1.93118 8.81384,-2.78191 z m 70.96553,-4.08427 c 4.70546,-8.7463 7.70925,-17.98253 8.91441,-27.41061 0.39874,-3.11941 0.55537,-14.406753 0.24352,-17.549702 C 202.83401,79.368411 195.1889,62.897768 182.42062,49.05749 179.66039,46.065507 171.85087,39.302863 168.21795,36.758684 154.2835,27.000253 139.49721,21.1728 122.1639,18.608248 c -1.49388,-0.221028 -4.82344,-0.595443 -7.39901,-0.832034 -4.03055,-0.370245 -5.5897,-0.416171 -11.19316,-0.329707 -6.612277,0.102028 -10.354087,0.382909 -15.419142,1.157427 C 77.785715,20.189172 70.040432,22.393846 60.740767,26.406649 49.977622,31.050948 41.594464,36.406169 33.096101,44.06627 17.456456,58.163244 7.7139617,77.014317 5.8099232,96.863198 c -0.2975089,3.101426 -0.2975089,12.332712 0,15.434142 0.4057281,4.22956 1.4974468,9.95101 2.581667,13.52991 1.9016098,6.27704 5.7355178,15.23369 6.5208038,15.23369 0.106122,0 0.901046,-0.33932 1.766499,-0.75403 4.107608,-1.96833 8.180252,-3.36653 14.152551,-4.85877 6.03162,-1.50707 11.743885,-3.12794 14.530168,-4.12298 5.360442,-1.91433 12.200432,-5.31645 12.396124,-6.16568 0.05509,-0.23906 0.152236,-1.83276 0.215879,-3.54153 0.171296,-4.59924 0.940643,-6.59701 3.211935,-8.34043 l 1.142505,-0.87698 -0.729061,-1.85559 c -0.899712,-2.28993 -1.337414,-3.81537 -1.65396,-5.76424 -0.48172,-2.96579 -0.375061,-2.74437 -1.504278,-3.12278 -1.316524,-0.44118 -3.116089,-2.143871 -3.630039,-3.43462 -0.210068,-0.527567 -0.527725,-2.321603 -0.705905,-3.986734 -0.24568,-2.295931 -0.526277,-3.627907 -1.161211,-5.512189 -1.691703,-5.020419 -2.039374,-7.901906 -1.32142,-10.951868 0.629293,-2.673309 1.875204,-4.20752 4.2055,-5.178625 1.610421,-0.671107 1.603762,-0.644792 0.883612,-3.492079 -0.360504,-1.425341 -0.525202,-3.013163 -0.654919,-6.31396 -0.156755,-3.98882 -0.232007,-4.572381 -0.788345,-6.113515 -0.549061,-1.520977 -0.603469,-1.926286 -0.507135,-3.77781 0.08019,-1.541145 0.04163,-2.015867 -0.150085,-1.847648 -0.141899,0.124518 -0.296763,0.899984 -0.344142,1.723263 -0.10305,1.7906 -0.414045,1.928393 -1.313338,0.581884 -0.534088,-0.799685 -0.595592,-1.064992 -0.48808,-2.105366 0.177611,-1.718743 1.099188,-3.052927 2.969569,-4.299096 0.830026,-0.553012 1.822959,-1.385618 2.206519,-1.850235 0.383559,-0.464607 1.093272,-1.074636 1.57714,-1.355612 0.483868,-0.280975 1.976472,-1.547618 3.316899,-2.814763 l 2.43714,-2.303909 -0.502478,-0.596366 C 64.128744,37.623619 63.96295,37.131357 63.953187,36.494093 l -0.01438,-0.938234 1.256376,0.04592 c 1.682622,0.06157 2.932568,-0.642327 4.825748,-2.717522 0.78577,-0.861315 2.359998,-2.37865 3.498286,-3.371836 3.164659,-2.761275 5.458266,-3.67572 10.304348,-4.108264 1.564259,-0.139624 3.101177,-0.436482 4.595969,-0.887732 4.736651,-1.429882 8.338432,-1.91748 14.164076,-1.91748 6.54478,0 9.58026,0.748886 16.17884,3.991469 4.69814,2.308705 5.32858,2.562016 9.11256,3.661524 1.89814,0.55155 4.04921,1.280962 4.78015,1.620939 1.80305,0.83863 4.16972,2.807104 5.98707,4.979776 0.82891,0.990966 1.75304,1.900073 2.05363,2.020254 0.78147,0.312434 1.84037,-0.124068 2.63446,-1.085968 0.60396,-0.731591 0.65846,-0.75494 0.8871,-0.380068 0.54967,0.901222 -0.0599,3.036411 -1.12162,3.929 -0.37987,0.319348 -0.69066,0.637715 -0.69066,0.707485 0,0.367744 1.85974,1.944726 3.29709,2.795803 4.32852,2.562987 5.72054,5.124175 5.57584,10.259089 -0.0431,1.528432 -0.0204,2.778907 0.0503,2.778835 0.29879,-3.07e-4 1.34054,-1.159789 1.66597,-1.854234 0.19373,-0.413409 0.45178,-0.751657 0.57342,-0.751657 0.4873,0 1.05455,1.900871 1.04677,3.507757 -0.009,1.966898 -0.36403,2.927888 -1.47272,3.992 -0.46911,0.450248 -1.02216,1.109481 -1.229,1.464962 -0.57555,0.989135 -1.44862,4.050521 -1.77015,6.206921 -0.26951,1.807649 -0.26128,1.950586 0.12391,2.151706 2.21789,1.15805 3.26805,2.348807 4.07905,4.625184 0.41781,1.172727 0.49602,1.847403 0.47635,4.109093 -0.0211,2.420266 -0.11247,3.012857 -0.86585,5.612407 -1.14998,3.967987 -1.2673,4.543806 -1.50703,7.39638 -0.11488,1.367035 -0.36186,2.947289 -0.54885,3.511684 -0.52404,1.581778 -1.60797,2.859464 -3.01839,3.557914 -0.77023,0.38144 -1.25884,0.76699 -1.31546,1.03804 -0.0496,0.23717 -0.25758,1.26462 -0.46227,2.28321 -0.2047,1.0186 -0.63936,2.64219 -0.96592,3.60799 -0.9342,2.76286 -0.96828,2.52299 0.44463,3.12955 0.68605,0.29453 1.73004,0.98829 2.31996,1.5417 2.29071,2.1489 2.89667,4.62224 2.4399,9.95891 -0.18722,2.18715 -0.20373,3.37539 -0.0504,3.62676 0.46238,0.75809 13.2904,5.6332 27.02782,10.27156 5.99015,2.02254 9.6067,3.37202 13.88322,5.1804 1.31919,0.55784 2.41454,1.01554 2.43412,1.01712 0.0196,0.002 0.36313,-0.60595 0.76347,-1.3501 z m -67.33758,-1.13497 c 0.41258,-0.1557 3.16582,-1.1155 6.1183,-2.13288 2.95248,-1.01738 6.82719,-2.43296 8.61048,-3.14573 2.80544,-1.12131 3.25925,-1.36734 3.36789,-1.82587 0.069,-0.29147 0.3933,-3.10063 0.72052,-6.24258 0.63108,-6.05946 0.63047,-8.36982 -0.003,-10.12238 -0.38212,-1.05779 -1.14432,-2.0854 -1.3881,-1.87149 -0.0796,0.0699 -0.28649,0.66037 -0.45982,1.31235 -1.23767,4.65534 -6.03993,12.55785 -10.69337,17.59682 -1.51243,1.63771 -5.88691,5.48818 -7.12214,6.26897 -0.81523,0.5153 -0.33122,0.60812 0.84887,0.16279 z m -18.20969,-5.96635 c 3.66017,-0.49711 8.85398,-2.38236 12.75835,-4.63101 5.86852,-3.37984 11.8244,-8.76181 15.68653,-14.17496 4.33569,-6.07689 6.28672,-11.92235 6.86533,-20.569059 0.34275,-5.122007 0.16022,-8.17744 -0.80686,-13.506294 -0.43015,-2.370234 -0.89417,-5.209717 -1.03116,-6.309962 -0.137,-1.100235 -0.33165,-2.072874 -0.43255,-2.161412 -0.35832,-0.314429 -0.95395,1.39696 -1.51823,4.362291 -1.12199,5.896062 -2.21953,7.571706 -5.77828,8.821812 -2.02333,0.710759 -6.94589,1.14541 -12.03722,1.062865 l -3.88334,-0.063 0.0493,0.601326 c 0.0271,0.330731 0.11375,1.187628 0.19257,1.904215 0.1398,1.270929 0.12304,1.326095 -0.68308,2.249428 -0.45451,0.520612 -1.29409,1.187065 -1.86573,1.481019 -0.98024,0.504074 -1.13902,0.525398 -2.79266,0.375036 -3.15534,-0.286907 -3.62272,-0.227435 -6.31142,0.803029 -1.47405,0.564957 -2.84251,0.959006 -3.33038,0.959006 -0.48735,0 -1.85478,-0.393313 -3.32279,-0.955744 -2.684259,-1.028388 -3.240124,-1.095591 -6.628798,-0.801423 -1.294583,0.112378 -1.769307,0.07364 -2.355073,-0.192151 -1.162235,-0.527372 -2.420693,-1.62821 -2.877488,-2.517087 -0.401178,-0.780652 -0.402789,-0.88358 -0.03539,-2.262039 0.211703,-0.794294 0.383597,-1.504081 0.381986,-1.577298 -0.0017,-0.07323 -1.77613,-0.08642 -3.943376,-0.02945 -8.361829,0.220092 -13.577367,-0.786154 -15.754204,-3.039499 -1.045391,-1.082133 -1.881336,-3.543982 -2.683598,-7.903205 -0.476773,-2.590611 -0.700123,-3.011916 -1.88075,-3.547633 -1.340581,-0.608301 -1.470379,-0.475223 -1.632833,1.674172 -0.08124,1.074881 -0.411454,3.262219 -0.733807,4.86075 -1.400618,6.945579 -1.492813,7.712946 -1.517144,12.627931 -0.04922,9.941416 1.360336,15.481946 5.481865,21.547646 3.228442,4.75133 9.951057,10.38758 18.092282,15.16858 8.382045,4.92244 16.410608,6.81738 24.327978,5.74205 z m -9.21123,-2.98584 c -5.309787,-0.60465 -9.455181,-2.39403 -13.175087,-5.68711 -2.763457,-2.44636 -4.225989,-4.59535 -4.225989,-6.20949 0,-0.60458 0.335021,-1.11732 0.730034,-1.11732 0.09999,0 0.91139,0.58751 1.803113,1.30558 3.373248,2.71633 6.117052,4.24409 9.371127,5.21788 2.762213,0.82661 5.206702,1.11903 9.454102,1.13096 8.53428,0.0239 12.36341,-1.24198 18.21649,-6.02264 1.09881,-0.89748 2.14884,-1.63178 2.3334,-1.63178 0.53046,0 0.86745,0.76323 0.69519,1.57454 -0.42201,1.98755 -2.69437,4.81774 -5.69719,7.09578 -4.69603,3.56256 -12.02725,5.19515 -19.50519,4.3436 z m -0.56697,-17.93304 c -3.935473,-0.68665 -7.760739,-3.32888 -6.465181,-4.46571 0.32199,-0.28254 0.492596,-0.28832 1.451178,-0.0492 5.895733,1.47077 14.281633,1.47761 19.124353,0.0157 1.2507,-0.37758 1.25919,-0.37742 1.58382,0.0292 0.69358,0.86889 -0.6804,2.41772 -3.09868,3.49301 -2.64248,1.17498 -8.74695,1.6485 -12.59549,0.97702 z m -0.294089,-7.50499 c -4.809421,-0.44825 -9.51505,-1.48246 -14.336328,-3.15087 -1.112266,-0.3849 -2.098244,-0.62343 -2.191063,-0.53004 -0.09282,0.0934 -0.296678,0.69424 -0.453018,1.33525 -0.356168,1.4603 -0.770363,1.64161 -1.647371,0.72112 -2.106376,-2.21083 -2.593877,-4.616067 -1.328133,-6.552764 1.070223,-1.637538 4.824827,-3.848133 6.662165,-3.922485 0.64664,-0.02618 0.743979,0.03109 0.698816,0.410974 -0.02886,0.242756 -0.362941,0.884122 -0.742403,1.42527 -0.379463,0.541138 -0.689932,1.098292 -0.689932,1.238099 0,0.321343 1.152356,0.200415 5.939229,-0.623253 4.496036,-0.773615 7.437799,-0.764728 9.239607,0.02792 1.92098,0.845073 2.47231,2.038366 1.18041,2.554877 -0.89269,0.356903 -5.03227,0.811507 -9.620509,1.056512 -4.298378,0.22953 -5.082249,0.3104 -4.864093,0.50183 0.06192,0.0543 0.976082,0.3153 2.031474,0.57993 7.248861,1.81756 16.603868,2.29174 23.863858,1.20958 3.5533,-0.52964 8.17634,-1.61841 7.99075,-1.8819 -0.0599,-0.0851 -1.37186,-0.21175 -2.91544,-0.28153 -7.12568,-0.322064 -10.97844,-0.823786 -11.70023,-1.523632 -0.78857,-0.764605 0.66391,-2.042856 2.8995,-2.551707 1.85734,-0.422756 4.23019,-0.323664 7.97899,0.333227 4.52961,0.793702 5.89614,0.932742 5.89614,0.599925 0,-0.14079 -0.31047,-0.698731 -0.68994,-1.239879 -1.45421,-2.073815 -0.84516,-2.417177 2.03999,-1.150052 2.45816,1.079606 4.64975,2.903537 5.04881,4.201844 0.15121,0.491934 0.21695,1.325374 0.14608,1.852104 -0.15173,1.12793 -1.27284,3.07021 -2.2402,3.88111 -0.64883,0.54388 -0.69944,0.55445 -0.99044,0.2069 -0.16868,-0.20146 -0.37626,-0.81021 -0.46131,-1.35277 -0.085,-0.54257 -0.2475,-1.03686 -0.36103,-1.09843 -0.11354,-0.0616 -1.12511,0.20682 -2.24795,0.59643 -5.97592,2.07357 -11.73622,3.09368 -18.17591,3.21881 -2.26148,0.044 -4.94371,0.002 -5.960519,-0.0925 z M 59.484391,93.741911 v -4.424166 l -0.620158,-0.928559 c -0.888125,-1.329787 -0.815746,-2.463977 0.303461,-4.755234 0.846348,-1.732652 0.881323,-1.892628 0.884485,-4.045387 0.0032,-2.214277 -0.0049,-2.248917 -0.675674,-2.863681 -0.37343,-0.342258 -0.902029,-0.671414 -1.174663,-0.731448 -0.842042,-0.185452 -1.90836,0.463666 -2.449487,1.491113 -0.434464,0.824925 -0.493952,1.287916 -0.493952,3.844307 0,2.881825 0.0084,2.929249 0.992284,5.602211 1.343958,3.651205 1.626063,4.946915 1.630715,7.489888 0.0022,1.210311 0.117836,2.361335 0.261752,2.605758 0.339406,0.576442 0.9067,1.139375 1.14821,1.139375 0.106165,0 0.193027,-1.990882 0.193027,-4.424177 z m 89.309029,0.02138 c 0.1572,-2.304953 0.38031,-3.580003 1.00512,-5.744166 1.65294,-5.725296 1.48776,-10.307495 -0.42169,-11.698043 -0.43334,-0.315564 -1.6315,-0.359613 -1.95924,-0.072 -0.60046,0.526891 -0.67162,2.564532 -0.21939,6.282481 0.24807,2.039512 0.49952,5.782784 0.55876,8.318393 0.0593,2.535609 0.12125,5.196492 0.13776,5.91308 l 0.03,1.302879 0.33331,-0.670012 c 0.20003,-0.402098 0.4141,-1.854644 0.53534,-3.632582 z m -41.40351,-1.373346 c 2.20391,-1.240963 4.15471,-1.529384 6.36784,-0.941466 1.37948,0.366445 2.38344,0.138683 3.05919,-0.694036 0.93773,-1.155565 0.46566,-2.505428 -1.3061,-3.734794 -2.10198,-1.458498 -3.9818,-3.196805 -4.74513,-4.3879 -0.67067,-1.046521 -1.82033,-3.491413 -3.18123,-6.765292 -0.5271,-1.268024 -1.04428,-1.553101 -2.81758,-1.553101 -1.90379,0 -2.22564,0.298792 -3.34681,3.106877 -1.1301,2.830483 -2.876051,5.892278 -3.962851,6.949456 -0.468964,0.456189 -1.71207,1.459715 -2.762441,2.230067 -2.222505,1.630001 -2.68633,2.342538 -2.314222,3.55513 0.3398,1.107302 1.009302,1.597038 2.183284,1.597038 0.526327,0 1.326001,-0.135308 1.777041,-0.300673 1.028492,-0.377082 3.015037,-0.38735 4.175389,-0.02158 0.48694,0.153492 1.50211,0.611205 2.25593,1.017128 1.18193,0.636446 1.51749,0.726457 2.43783,0.653843 0.68135,-0.0538 1.46954,-0.310727 2.17986,-0.710687 z M 91.041668,84.463479 c 2.497456,-0.515395 4.099105,-1.676155 5.31205,-3.849799 0.864893,-1.549941 1.866712,-4.345395 2.192179,-6.117054 0.242676,-1.320951 0.231643,-1.601394 -0.08407,-2.13706 -1.173784,-1.991731 -4.645468,-2.649869 -14.781792,-2.802215 -5.469656,-0.08223 -6.821547,-0.0449 -8.335921,0.229879 -3.648715,0.662117 -4.668537,1.477204 -4.659845,3.724351 0.0138,3.569009 0.892045,7.67308 1.939068,9.061388 0.947804,1.256744 2.70544,1.806953 6.926849,2.168366 2.659402,0.227681 9.888804,0.05288 11.491452,-0.277856 z M 84.6768,78.393778 c -0.660721,-0.127463 -1.652088,-1.172164 -1.822715,-1.920763 -0.07403,-0.32482 -0.2602,-0.632866 -0.413704,-0.684555 -0.153502,-0.05165 -1.603705,0.263026 -3.222673,0.699354 -2.778283,0.748783 -2.988022,0.777103 -3.735082,0.50432 -0.995168,-0.363377 -1.19797,-0.646919 -0.810186,-1.132717 1.201378,-1.505053 5.455009,-2.575608 11.424262,-2.875248 3.824583,-0.191988 6.630773,0.58893 8.443681,2.349727 l 0.876433,0.851251 -0.516477,0.366987 c -0.804374,0.571533 -2.557552,0.500832 -3.240188,-0.130664 -0.298429,-0.276077 -0.79222,-0.495535 -1.109028,-0.492896 -0.458989,0.0041 -0.675523,0.200138 -1.103197,1.000222 -0.292664,0.547509 -0.74761,1.096666 -1.01099,1.220355 -0.520315,0.244341 -2.94421,0.402036 -3.760136,0.244627 z m 47.74833,6.042855 c 1.00598,-0.154106 2.30072,-0.493172 2.8772,-0.753488 1.85511,-0.83771 2.75178,-3.082781 3.24212,-8.117621 0.26228,-2.693038 0.1954,-3.226689 -0.51393,-4.100798 -1.20038,-1.479219 -3.8795,-1.962634 -10.86357,-1.960189 -7.069,0.002 -12.22472,0.523056 -14.31547,1.445478 -1.48086,0.653352 -1.96993,1.263044 -1.96993,2.455847 0,1.290207 1.13677,4.89945 2.14806,6.820059 1.66101,3.154577 3.68764,4.282763 8.24559,4.590166 2.14969,0.144993 9.31915,-0.099 11.14993,-0.379454 z m -10.96662,-6.208384 c -0.50281,-0.191875 -0.91329,-0.595404 -1.31732,-1.295035 -0.6494,-1.124494 -1.18,-1.294309 -1.90643,-0.610121 -0.644,0.606562 -1.74619,0.821816 -2.74382,0.535871 -1.23016,-0.352597 -1.21089,-0.88406 0.0696,-1.919771 1.9872,-1.607295 4.2424,-2.144087 8.2113,-1.954462 4.84709,0.231588 8.79949,1.214709 10.48418,2.607845 0.78506,0.649189 0.71788,0.918659 -0.34434,1.381384 -0.81508,0.355072 -0.81973,0.354509 -3.71063,-0.450995 -1.59199,-0.443579 -2.98838,-0.806516 -3.1031,-0.806516 -0.11472,0 -0.31277,0.338248 -0.44014,0.751667 -0.12737,0.413409 -0.39134,0.9511 -0.58662,1.194869 -0.64755,0.808337 -3.16668,1.117048 -4.61269,0.565264 z m -10.7425,-9.874388 c 2.84346,-1.188487 5.43998,-1.61829 12.50086,-2.069305 4.79186,-0.306073 9.42466,-0.03058 14.27699,0.849083 1.88457,0.341633 3.77415,0.664898 4.1991,0.718367 l 0.77261,0.09716 -0.1573,-0.977128 c -0.27889,-1.732427 -1.14155,-2.988097 -2.68447,-3.907492 -1.91366,-1.140316 -2.01524,-1.423838 -2.01795,-5.632156 -0.002,-3.206777 -0.0418,-3.538521 -0.53524,-4.466293 -1.04419,-1.963421 -3.0941,-3.123802 -7.27435,-4.117755 -3.08859,-0.734383 -4.37255,-1.229109 -7.2749,-2.803084 -3.67176,-1.991229 -4.59448,-2.128644 -8.7453,-1.30245 -5.15979,1.027028 -7.3145,0.896538 -11.57563,-0.701032 -4.039948,-1.514646 -5.056536,-1.767925 -7.994295,-1.991761 -3.819291,-0.290998 -5.789276,-0.554607 -7.761844,-1.038635 -2.046127,-0.50208 -3.440172,-0.427819 -5.469191,0.291315 -2.368472,0.839458 -3.895038,1.762444 -6.19547,3.74589 -3.105741,2.677789 -5.17313,5.543802 -5.664788,7.85306 -0.10877,0.510885 -0.149151,2.673678 -0.08973,4.806197 0.135579,4.866017 0.05204,5.171395 -1.9182,7.01216 -1.501296,1.402636 -2.140154,2.371522 -2.140154,3.245733 v 0.480377 l 2.56986,-0.577578 c 8.027241,-1.80414 15.441719,-2.11859 24.841959,-1.053547 3.088477,0.349928 3.967237,0.539072 5.68793,1.224292 2.519853,1.003454 2.879363,1.054396 7.104253,1.006625 3.98528,-0.0451 4.0023,-0.04715 5.54525,-0.692094 z"
       id="path1" /></g></svg>
